<svg version="1.2" xmlns="http://www.w3.org/2000/svg" viewBox="0 0 709 298" width="238" height="100">
	<title>logo-svg</title>
	<style>
		.s0 { fill: #ed1c24 } 
		.s1 { fill: #b91319 } 
		.s2 { fill: #f15e26 } 
		.s3 { fill: #000000 } 
		.s4 { fill: #ffc20e } 
		.s5 { fill: #ffffff } 
	</style>
	<g id="Layer">
		<circle id="Layer" class="s0" cx="140.1" cy="148.9" r="136.8"/>
		<path id="Layer" class="s1" d="m95.3 52.6c14.1-6.5 29.8-10.1 46.3-10.1 5.3 0 10.6 0.4 15.7 1.1 2.8 6.1 10 19.3 26 34.2-4.1 2.6-8.3 5.3-12.7 8.3-27.1-22.7-57.3-30.7-75.3-33.5z"/>
		<path id="Layer" class="s1" d="m177.5 92.2c4.6-3.1 8.9-5.8 12.9-8.2 13.3 10.9 31.4 22.3 55.9 32.1 4.2 11.7 6.5 24.3 6.5 37.5 0 17.9-4.2 34.7-11.7 49.7-6.8-30.1-26.9-76.6-63.6-111.1z"/>
		<path id="Layer" class="s1" d="m198.8 79.2c6.8-3.6 12.6-6.2 17.3-8 10.4 9.3 18.9 20.6 25.2 33.2-17.9-7.9-31.8-16.7-42.5-25.2z"/>
		<path id="Layer" class="s1" d="m168.6 45.8c14.6 3.6 28 10.2 39.7 18.9-5.3 2.2-10.9 5-16.8 8.3-12-10.7-19-20.6-22.9-27.2z"/>
		<path id="Layer" class="s1" d="m36.4 118.1c8.1-24.1 24.3-44.5 45.4-58.1 9.7 0.7 48 4.7 81.2 31.3-5.9 4.3-11.9 9-18.2 14-0.2 0.2-0.4 0.3-0.6 0.5-19.1-18.1-46.1-19.9-78.2-5.1-11.7 5.4-22 12-29.6 17.4z"/>
		<path id="Layer" class="s1" d="m59.8 228.6c-18.2-19.8-29.2-46.1-29.2-75 0-7.4 0.7-14.5 2.1-21.5 14.5-11.7 69.9-52.2 104.7-20.5-47.5 41.9-71.1 99.2-77.6 117z"/>
		<path id="Layer" class="s1" d="m234.2 215.2c-16.8 25.2-43.6 43.2-74.7 48.2 5.9-24.7 23-109.5-9.3-150.9 0.1-0.1 0.1-0.1 0.2-0.2 7-5.6 13.5-10.6 19.6-14.9 38.7 35.6 60.2 88.5 64.2 117.8z"/>
		<path id="Layer" class="s1" d="m150.1 264.4q-4.2 0.3-8.4 0.3c-28.9 0-55.2-11-75-29.1 3.3-9.5 26.6-73.2 76.7-117.4 30.8 39.8 11.1 128.3 6.7 146.2z"/>
		<path id="Layer" class="s2" d="m93.8 47.8c14.1-6.5 29.8-10.1 46.3-10.1 5.3 0 10.6 0.4 15.7 1.1 2.8 6.1 10 19.3 26 34.2-4.1 2.6-8.3 5.3-12.7 8.3-27.1-22.6-57.3-30.6-75.3-33.5z"/>
		<path id="Layer" class="s2" d="m176 87.5c4.6-3.1 8.9-5.8 12.9-8.2 13.3 10.9 31.4 22.3 55.9 32.1 4.2 11.7 6.5 24.3 6.5 37.5 0 17.9-4.2 34.7-11.7 49.7-6.9-30.1-26.9-76.7-63.6-111.1z"/>
		<path id="Layer" class="s2" d="m197.3 74.4c6.8-3.6 12.6-6.2 17.3-8 10.4 9.3 18.9 20.6 25.2 33.2-17.9-7.9-31.8-16.6-42.5-25.2z"/>
		<path id="Layer" class="s2" d="m167.1 41.1c14.6 3.6 28 10.2 39.7 18.9-5.3 2.2-10.9 5-16.8 8.3-12-10.7-19-20.6-22.9-27.2z"/>
		<path id="Layer" class="s2" d="m34.9 113.4c8.1-24.2 24.3-44.6 45.4-58.1 9.7 0.6 48 4.7 81.2 31.3-5.9 4.3-11.9 9-18.2 14-0.2 0.2-0.4 0.3-0.6 0.5-19.1-18.1-46.1-19.9-78.2-5.1-11.7 5.3-22.1 12-29.6 17.4z"/>
		<path id="Layer" class="s2" d="m58.3 223.9c-18.2-19.8-29.2-46.1-29.2-75 0-7.3 0.7-14.5 2.1-21.5 14.5-11.7 69.9-52.2 104.7-20.5-47.5 41.9-71.1 99.1-77.6 117z"/>
		<path id="Layer" class="s2" d="m232.7 210.4c-16.8 25.2-43.6 43.2-74.7 48.2 5.9-24.7 23-109.5-9.3-150.9 0.1-0.1 0.1-0.1 0.2-0.2 7-5.6 13.5-10.6 19.6-14.9 38.7 35.6 60.2 88.5 64.2 117.8z"/>
		<path id="Layer" class="s2" d="m148.6 259.6q-4.2 0.3-8.4 0.3c-28.9 0-55.2-11-75-29.1 3.3-9.5 26.6-73.2 76.7-117.4 30.8 39.9 11.1 128.3 6.7 146.2z"/>
		<path id="Layer" class="s3" d="m156.4 171.8q0.2 0 0 0z"/>
		<path id="Layer" class="s3" d="m161.6 179.8q0.2 0 0 0c-0.1 0 0 0 0 0z"/>
		<path id="Layer" class="s0" d="m276.9 148.9c0 12.1-1.6 23.8-4.5 34.9h-264.5c-2.9-11.2-4.5-22.8-4.5-34.9 0-12.1 1.6-23.8 4.5-34.9h264.5c3 11.1 4.5 22.8 4.5 34.9z"/>
		<path id="Layer" class="s4" d="m32.7 122.8h14.3v20.9l17.8-20.9h16.9l-19.5 22.2 20.2 29.4h-17.2l-13-19.2-5.2 5.8v13.4h-14.3z"/>
		<path id="Layer" class="s4" d="m81.9 166.7l8-9.5c5.1 4.1 10.8 6.2 16.7 6.2 3.8 0 5.9-1.3 5.9-3.5v-0.1c0-2.1-1.7-3.3-8.7-4.9-11-2.5-19.5-5.6-19.5-16.2v-0.1c0-9.6 7.6-16.5 20-16.5 8.8 0 15.6 2.4 21.2 6.9l-7.2 10.1c-4.7-3.3-9.9-5.1-14.5-5.1-3.5 0-5.2 1.5-5.2 3.3v0.1c0 2.4 1.8 3.4 8.9 5 11.9 2.6 19.3 6.4 19.3 16.1v0.1c0 10.5-8.3 16.8-20.9 16.8-9-0.1-17.7-3-24-8.7z"/>
		<path id="Layer" class="s4" d="m148.8 148.7v-0.1c0-15.1 11.6-26.9 27.2-26.9 10.5 0 17.3 4.4 21.9 10.8l-10.8 8.3c-3-3.7-6.3-6-11.3-6-7.2 0-12.3 6.1-12.3 13.6v0.2c0 7.7 5.1 13.8 12.3 13.8 5.4 0 8.6-2.5 11.7-6.3l10.8 7.7c-4.9 6.7-11.4 11.7-22.9 11.7-14.8-0.1-26.6-11.4-26.6-26.8z"/>
		<path id="Layer" class="s4" d="m201.1 148.7v-0.1c0-15.1 11.8-26.9 27.8-26.9 9.1 0 15.5 2.8 20.9 7.5l-8.4 10.1c-3.7-3.1-7.4-4.9-12.5-4.9-7.4 0-13.2 6.3-13.2 14.2v0.1c0 8.3 5.8 14.3 14 14.3 3.5 0 6.1-0.7 8.3-2.1v-6.3h-10.2v-10.5h23.8v23.2c-5.5 4.5-13.1 8-22.4 8-16 0.1-28.1-10.9-28.1-26.6z"/>
		<path id="Layer" class="s4" d="m162.1 181.2q0.2-0.2 0 0z"/>
		<path id="Layer" fill-rule="evenodd" class="s5" d="m20.9 154.4l0.5 5.4c0.1 1.3-0.2 2.4-0.8 3.1-0.5 0.6-1.1 0.9-1.9 1-1.3 0.1-2.1-0.5-2.6-1.3-0.4 1.4-1.1 2.3-2.7 2.4-2.1 0.2-3.3-1.4-3.5-4.1l-0.5-5.5zm-8.9 6.3c0.1 1.1 0.5 1.8 1.4 1.7 0.8-0.1 1.2-0.7 1.1-2l-0.2-2.9-2.5 0.2zm4.6-1.1c0.1 1.1 0.5 1.8 1.4 1.7 0.8-0.1 1.1-0.7 1-1.8l-0.2-2.5-2.4 0.2z"/>
		<path id="Layer" fill-rule="evenodd" class="s5" d="m22.7 169.4l0.4 2.3-10.6 7-0.5-2.6 2.4-1.5-0.9-4.8-2.7-0.6-0.5-2.6zm-6.2 3.9l3.4-2.2-4-0.8z"/>
		<path id="Layer" class="s5" d="m14.5 179.4l2.1 1c-0.5 1.2-0.8 2.4-0.4 3.7 0.3 1 0.8 1.5 1.5 1.3 0.6-0.2 0.8-0.6 0.8-2.6-0.1-2.4 0.2-4 2.4-4.6 2-0.6 3.8 0.7 4.4 3 0.5 1.6 0.3 3.2-0.3 4.5l-2.2-0.8c0.4-1.2 0.6-2.3 0.3-3.2-0.3-0.9-0.8-1.3-1.4-1.2-0.7 0.2-0.8 0.7-0.8 2.8 0 2.4-0.4 3.9-2.4 4.5-2.2 0.6-3.9-0.7-4.6-3.1-0.4-1.8-0.2-3.7 0.6-5.3z"/>
		<path id="Layer" class="s5" d="m26.9 187l0.9 2.3-4.7 1.8 6.4 2.6 1.1 2.9-6.3-2.7-4.5 7-1.1-2.9 3.4-5.1-1.8-0.7-3.3 1.2-0.9-2.3z"/>
		<path id="Layer" class="s5" d="m31 197.5l3.9 7.9-2.1 1-2.7-5.6-2.1 1 2.4 4.9-2 1-2.4-4.9-2.2 1.1 2.7 5.6-2 1-3.9-7.9z"/>
		<path id="Layer" class="s5" d="m35 210.3l-1.8-3 2.1-1.2 4.9 8.2-2 1.2-1.9-3-7.9 4.8-1.3-2.2z"/>
		<path id="Layer" fill-rule="evenodd" class="s5" d="m40.9 215.4l3.1 4.4c0.8 1.1 1.1 2.1 0.9 3.1-0.1 0.7-0.5 1.3-1.1 1.8-1.1 0.8-2.1 0.6-2.9 0.2 0.4 1.4 0.2 2.5-1 3.4-1.7 1.2-3.6 0.5-5.1-1.7l-3.2-4.5zm-4.4 9.9c0.7 0.9 1.4 1.2 2.1 0.7 0.6-0.5 0.7-1.2-0.1-2.3l-1.7-2.4-2.1 1.5zm3.4-3.3c0.7 0.9 1.4 1.3 2.1 0.8 0.6-0.4 0.6-1.2 0-2.1l-1.5-2-2 1.4z"/>
		<path id="Layer" fill-rule="evenodd" class="s5" d="m50.2 227.3l1.6 1.8-5.5 11.4-1.8-2 1.2-2.5-3.2-3.7-2.6 0.9-1.7-1.9zm-3.4 6.5l1.8-3.6-3.8 1.3z"/>
		<path id="Layer" class="s5" d="m55.7 233.5l1.9 1.8-6.4 6.7 4.2 4-1.6 1.7-6-5.8z"/>
		<path id="Layer" class="s5" d="m62.8 240l1.9 1.6-5.8 7.3 4.5 3.6-1.4 1.8-6.5-5.2z"/>
		<path id="Layer" class="s5" d="m73.8 248.4l7.6 4.5-1.2 2-5.3-3.2-1.3 2.1 4.8 2.8-1.2 2-4.8-2.8-2.3 3.8-2.2-1.2z"/>
		<path id="Layer" class="s5" d="m82.6 253.9l7.7 4-1 2-5.5-2.9-1.1 2.1 4.9 2.5-1.1 2-4.8-2.5-1.1 2.2 5.5 2.9-1 2-7.8-4.1z"/>
		<path id="Layer" fill-rule="evenodd" class="s5" d="m91.7 258.5l4.2 1.6c3.4 1.3 4.9 4.5 3.7 7.6-1.2 3-4.4 4.5-7.8 3.2l-4.2-1.6zm1 10.3c1.9 0.7 3.8-0.1 4.5-2 0.7-1.9-0.1-3.8-2-4.5l-1.8-0.7-2.5 6.5z"/>
		<path id="Layer" class="s5" d="m103.2 262.7l8.4 2.5-0.6 2.1-6-1.7-0.6 2.3 5.2 1.5-0.6 2.2-5.3-1.6-0.6 2.4 6 1.7-0.6 2.2-8.5-2.5z"/>
		<path id="Layer" fill-rule="evenodd" class="s5" d="m113.2 265.7l5.2 1c1.4 0.3 2.5 0.9 3.1 1.8 0.5 0.8 0.7 1.7 0.5 2.8-0.4 1.8-1.6 2.8-3.1 3l2 4.6-2.9-0.6-1.7-4.1-2-0.4-0.7 3.6-2.5-0.5zm3.9 6.5c1.2 0.2 2-0.3 2.2-1.2 0.2-1.1-0.4-1.8-1.6-2l-2.5-0.5-0.7 3.3z"/>
		<path id="Layer" fill-rule="evenodd" class="s5" d="m128.1 268.1l2.3 0.2 3.8 12.1-2.6-0.3-0.8-2.7-4.8-0.4-1.3 2.5-2.6-0.3zm2 7l-1.2-3.9-1.9 3.6z"/>
		<path id="Layer" class="s5" d="m137.7 271.2l-3.5-0.1v-2.3l9.6 0.1-0.1 2.4-3.5-0.1-0.1 9.3-2.6-0.1z"/>
		<path id="Layer" class="s5" d="m145.2 268.8l2.5-0.2 0.6 11.6-2.5 0.1z"/>
		<path id="Layer" fill-rule="evenodd" class="s5" d="m150.2 274.5c-0.4-3.3 1.8-6.3 5.4-6.7 3.5-0.4 6.4 1.9 6.8 5.1 0.4 3.3-1.8 6.3-5.4 6.7-3.5 0.5-6.4-1.8-6.8-5.1zm9.6-1.2c-0.2-2-1.9-3.5-3.9-3.2-2 0.3-3.2 2-3 4 0.2 2 1.9 3.4 3.9 3.2 2-0.2 3.2-2 3-4z"/>
		<path id="Layer" class="s5" d="m163.2 266.9l2.2-0.5 6.9 5.6-1.6-6.9 2.5-0.6 2.6 11.3-2.1 0.5-7.1-5.9 1.7 7.2-2.5 0.6z"/>
		<path id="Layer" fill-rule="evenodd" class="s5" d="m181 268.2c-1.2-3.1 0.2-6.6 3.5-7.9 3.3-1.3 6.7 0.2 7.9 3.3 1.2 3.1-0.2 6.5-3.5 7.8-3.3 1.4-6.7-0.1-7.9-3.2zm9-3.5c-0.7-1.9-2.7-2.9-4.6-2.1-1.9 0.8-2.6 2.8-1.9 4.6 0.7 1.8 2.7 2.9 4.6 2.1 1.9-0.7 2.6-2.7 1.9-4.6z"/>
		<path id="Layer" class="s5" d="m191.6 257.6l7.9-4 1.1 2.1-5.6 2.8 1.1 2.2 4.9-2.5 1.1 2-5 2.6 2.1 3.9-2.3 1.2z"/>
		<path id="Layer" class="s5" d="m204.5 250.7l2.2-1.6 5.3 2.3-0.3-5.7 2.3-1.6 6.6 9.5-2.1 1.5-4.3-6.3 0.1 6-5.5-2.2 4.3 6.2-2 1.4z"/>
		<path id="Layer" fill-rule="evenodd" class="s5" d="m219 247.6c-2.2-2.5-2-6.2 0.7-8.6 2.7-2.3 6.4-2 8.5 0.5 2.2 2.5 2 6.2-0.7 8.6-2.7 2.3-6.4 2-8.5-0.5zm7.2-6.3c-1.3-1.5-3.5-1.8-5.1-0.5-1.5 1.3-1.6 3.5-0.2 5 1.3 1.5 3.5 1.8 5 0.4 1.6-1.3 1.6-3.4 0.3-4.9z"/>
		<path id="Layer" class="s5" d="m225.4 234.1l1.6-1.7 9 0.8-5.3-4.8 1.7-1.9 8.5 7.9-1.4 1.6-9.3-0.9 5.4 5-1.7 1.8z"/>
		<path id="Layer" class="s5" d="m237.2 224.2l-2.1 2.8-1.9-1.4 5.8-7.6 1.9 1.4-2.2 2.8 7.4 5.6-1.6 2z"/>
		<path id="Layer" class="s5" d="m239.7 216.9l4.7-7.3 1.9 1.2-3.3 5.2 2 1.3 2.9-4.6 1.9 1.2-2.9 4.6 2 1.3 3.4-5.3 1.9 1.2-4.7 7.4z"/>
		<path id="Layer" class="s5" d="m245.2 208.2l1.1-2.1 8.8-1.6-6.3-3.2 1.1-2.3 10.3 5.3-1 1.9-9.1 1.7 6.6 3.3-1.2 2.2z"/>
		<path id="Layer" class="s5" d="m250.7 197.1l3.2-8.1 2.1 0.9-2.3 5.7 2.2 0.9 2-5.1 2.1 0.9-2 5 2.3 0.9 2.3-5.8 2.1 0.8-3.2 8.2z"/>
		<path id="Layer" class="s5" d="m259.9 189.6c-3.2-0.9-5.1-4.2-4.1-7.5 0.6-2 1.5-3 2.8-3.9l1.4 2.1c-1 0.6-1.6 1.3-2 2.6-0.5 1.8 0.6 3.6 2.5 4.2 2 0.6 3.9-0.4 4.5-2.3 0.3-0.9 0.3-1.7 0-2.5l-1.6-0.5-0.7 2.5-2.1-0.6 1.4-4.8 4.8 1.4c0.6 1.4 1 3.2 0.4 5.3-0.9 3.3-4 5-7.3 4z"/>
		<path id="Layer" fill-rule="evenodd" class="s5" d="m257.8 175.8l1-5.2c0.3-1.4 0.9-2.5 1.8-3.1 0.8-0.5 1.7-0.7 2.8-0.5 1.8 0.3 2.8 1.6 3.1 3.1l4.6-2-0.6 2.9-4.1 1.7-0.4 2 3.6 0.7-0.5 2.5zm6.5-4c0.2-1.2-0.3-2-1.2-2.2-1.1-0.2-1.8 0.4-2 1.7l-0.5 2.5 3.3 0.6z"/>
		<path id="Layer" fill-rule="evenodd" class="s5" d="m265.6 165.8c-3.3-0.3-5.8-3.1-5.5-6.7 0.3-3.6 3.2-5.9 6.5-5.6 3.3 0.3 5.7 3.1 5.4 6.7-0.3 3.5-3.1 5.9-6.4 5.6zm0.8-9.6c-2-0.2-3.8 1.1-4 3.2-0.2 2 1.3 3.6 3.3 3.8 2 0.2 3.7-1.1 3.9-3.2 0.3-2.1-1.2-3.7-3.2-3.8z"/>
		<path id="Layer" class="s5" d="m12 129.5l0.5-2.5 4.9 0.9-4.1-5.5 0.6-3 4 5.5 7.4-3.6-0.5 3-5.6 2.6 1.2 1.6 3.4 0.6-0.4 2.5z"/>
		<path id="Layer" fill-rule="evenodd" class="s5" d="m20.4 117.2c-3.2-1-5-4.3-3.9-7.7 1.1-3.4 4.4-5 7.5-4.1 3.1 1 4.9 4.3 3.8 7.7-0.9 3.4-4.3 5.1-7.4 4.1zm2.9-9.2c-1.9-0.6-3.9 0.3-4.6 2.2-0.6 2 0.5 3.8 2.4 4.4 1.9 0.6 3.9-0.3 4.5-2.2 0.7-2-0.4-3.8-2.3-4.4z"/>
		<path id="Layer" class="s5" d="m22 93.1l-1 2.2-3.1 0.9 0.8-1.8 1.4-0.8-0.3-1.6 0.8-1.8zm7.5 10l-1-2.1c1.2-0.6 2.2-1.4 2.7-2.6 0.4-0.9 0.3-1.7-0.3-2-0.6-0.3-1.1 0-2.3 1.5-1.5 1.9-2.7 3-4.8 2-1.9-0.9-2.5-3-1.5-5.1 0.7-1.5 1.8-2.6 3.1-3.3l1.2 2c-1.1 0.6-1.9 1.4-2.3 2.3-0.4 0.9-0.2 1.5 0.3 1.8 0.7 0.3 1.1 0 2.4-1.6 1.5-1.9 2.8-2.7 4.7-1.9 2.1 1 2.5 3.1 1.5 5.4-0.7 1.5-2 2.8-3.7 3.6z"/>
		<path id="Layer" fill-rule="evenodd" class="s5" d="m28.9 82.2l1.2-2 12.5 1.8-1.4 2.3-2.8-0.4-2.5 4.1 1.7 2.3-1.3 2.2zm7.2 1.2l-4-0.6 2.4 3.3z"/>
		<path id="Layer" fill-rule="evenodd" class="s5" d="m36 71.5l3.3-4.1c0.9-1.2 1.9-1.8 3-1.9q1.3-0.1 2.7 0.9c1.5 1.2 1.8 2.7 1.3 4.2l5 0.4-1.9 2.3-4.4-0.5-1.2 1.6 2.9 2.3-1.6 2zm7.6-0.5c0.8-1 0.7-1.9-0.1-2.5-0.9-0.7-1.8-0.4-2.5 0.5l-1.6 2 2.6 2z"/>
		<path id="Layer" class="s5" d="m46 59.5l1.8-1.8 3.6 3.6-0.2-6.9 2.2-2.2 0.1 6.8 8.2 1.3-2.2 2.2-6-1v1.9l2.5 2.5-1.8 1.8z"/>
		<path id="Layer" fill-rule="evenodd" class="s5" d="m60.4 46.4l1.9-1.4 11 6.2-2.1 1.6-2.4-1.4-3.9 3 0.7 2.7-2.1 1.6zm6.3 3.8l-3.5-2 1.1 3.9z"/>
		<path id="Layer" class="s5" d="m74.6 35.6l-2 1.2-3.1-1 1.7-1 1.6 0.1 0.6-1.5 1.7-1zm0.5 12.4l0.4-2.3c1.3 0.2 2.6 0.1 3.7-0.6 0.9-0.5 1.2-1.2 0.9-1.8-0.3-0.6-0.8-0.6-2.8-0.1-2.3 0.7-3.9 0.9-5.1-1.1-1.1-1.8-0.3-3.9 1.7-5.1 1.4-0.9 3-1.1 4.4-0.9l-0.2 2.3c-1.2-0.1-2.3 0.1-3.2 0.6-0.8 0.5-1 1.1-0.8 1.6 0.4 0.7 0.9 0.6 2.9 0 2.3-0.7 3.9-0.6 4.9 1.1 1.2 2 0.3 4-1.8 5.3-1.4 1-3.2 1.4-5 1z"/>
		<path id="Layer" class="s5" d="m83.1 32.1l2.3-1 2.1 4.6 2.2-6.5 2.8-1.3-2.3 6.4 7.2 4-2.8 1.3-5.3-3-0.6 1.8 1.5 3.2-2.4 1.1z"/>
		<path id="Layer" class="s5" d="m97.5 26.1l2.4-0.8 3.7 11-2.3 0.8z"/>
		<path id="Layer" class="s5" d="m114.8 31.3l1.2-2c1.2 0.7 2.3 1 3.7 0.8 1-0.2 1.6-0.7 1.4-1.4-0.1-0.6-0.6-0.9-2.6-1-2.4-0.2-4-0.5-4.4-2.8-0.4-2.1 1-3.7 3.4-4.2 1.7-0.3 3.2 0 4.5 0.7l-1 2.1c-1.1-0.5-2.2-0.8-3.2-0.6-1 0.2-1.4 0.7-1.3 1.3 0.1 0.7 0.7 0.9 2.7 1.1 2.4 0.2 3.9 0.8 4.2 2.8 0.4 2.3-1.1 3.8-3.5 4.3-1.6 0.2-3.5-0.1-5.1-1.1z"/>
		<path id="Layer" fill-rule="evenodd" class="s5" d="m131.6 18.9l2.3-0.1 5.7 11.3-2.7 0.2-1.2-2.5-4.9 0.3-0.9 2.7-2.6 0.2zm3.1 6.6l-1.8-3.7-1.3 3.8z"/>
		<path id="Layer" class="s5" d="m141.7 18.6l2.9 0.1 2.5 8.3 3.5-8 2.7 0.2-5.3 11.4-2.2-0.1z"/>
		<path id="Layer" class="s5" d="m158.8 19.9l8.6 1.5-0.4 2.2-6.1-1-0.4 2.3 5.3 0.9-0.3 2.2-5.4-0.9-0.4 2.4 6.2 1.1-0.4 2.2-8.7-1.5z"/>
		<path id="Layer" class="s5" d="m170.1 32l8.2-5.3-6-1.7 0.7-2.2 9 2.7-0.5 1.8-8.2 5.3 6.1 1.8-0.6 2.2-9.3-2.7z"/>
		<path id="Layer" class="s5" d="m192.3 35.6c1.5-3 4.9-4.2 8.1-2.6 1.9 1 2.8 2.2 3.3 3.7l-2.3 0.9c-0.4-1.1-1-2-2-2.5-1.7-0.9-3.7-0.1-4.6 1.7-0.9 1.8-0.4 3.9 1.3 4.8 1.2 0.6 2.1 0.5 3.3 0.2l0.7 2.2c-1.6 0.6-3.2 0.7-5.2-0.3-3.1-1.7-4.1-5.2-2.6-8.1z"/>
		<path id="Layer" fill-rule="evenodd" class="s5" d="m209.4 38.1l4.3 3c1.2 0.8 1.9 1.8 2.1 2.9 0.2 0.9-0.1 1.8-0.7 2.7-1.1 1.5-2.6 1.9-4.1 1.5v5l-2.4-1.7 0.1-4.5-1.6-1.1-2.1 3-2.1-1.5zm1 7.6c1 0.7 2 0.6 2.5-0.2 0.6-0.9 0.3-1.8-0.7-2.5l-2.1-1.4-1.9 2.7z"/>
		<path id="Layer" class="s5" d="m222.1 47.1l1.8 1.5-0.6 9 4.7-5.4 1.8 1.6-7.5 8.8-1.7-1.4 0.6-9.3-4.8 5.6-1.9-1.7z"/>
		<path id="Layer" class="s5" d="m234.4 58.4l5.9 6.5-1.7 1.5-4.1-4.6-1.8 1.6 3.7 4-1.7 1.6-3.7-4.1-1.8 1.6 4.3 4.7-1.7 1.5-5.9-6.5z"/>
		<path id="Layer" class="s5" d="m243.7 78.8c2.8-1.7 6.5-1 8.3 2 1.1 1.8 1.3 3.1 1 4.7l-2.5-0.3c0.2-1.2 0.1-2.1-0.6-3.2-1-1.6-3.1-2-4.8-0.9-1.8 1.1-2.4 3.2-1.3 4.9 0.5 0.8 1.1 1.4 1.9 1.7l1.4-0.9-1.3-2.2 1.9-1.2 2.6 4.3-4.3 2.6c-1.5-0.5-3-1.4-4.2-3.2-1.9-3-1.1-6.5 1.9-8.3z"/>
		<path id="Layer" fill-rule="evenodd" class="s5" d="m251.8 92.6c3-1.4 6.6-0.1 8 3.2 1.5 3.3 0.1 6.7-2.9 8-3 1.3-6.5 0.1-8-3.2-1.5-3.3-0.1-6.7 2.9-8zm4 8.8c1.8-0.8 2.8-2.8 1.9-4.7-0.8-1.9-2.9-2.5-4.7-1.7-1.8 0.8-2.7 2.8-1.9 4.7 0.8 1.8 2.9 2.5 4.7 1.7z"/>
		<path id="Layer" fill-rule="evenodd" class="s5" d="m264.2 107.1l1.5 5.1c0.4 1.4 0.4 2.6-0.2 3.6-0.4 0.8-1.2 1.4-2.3 1.7-1.8 0.5-3.2-0.1-4.1-1.3l-3.1 3.8-0.9-2.9 2.8-3.4-0.6-1.9-3.5 1.1-0.7-2.4zm-3.9 6.6c0.4 1.2 1.2 1.7 2.1 1.4 1-0.3 1.4-1.2 1-2.4l-0.7-2.4-3.2 1z"/>
		<path id="Layer" class="s5" d="m268.3 122.2l1.5 8.6-2.2 0.4-1.1-6.1-2.3 0.4 0.9 5.4-2.2 0.4-1-5.4-2.4 0.4 1.1 6.2-2.2 0.4-1.5-8.7z"/>
		<path id="Layer" class="s1" d="m164 157c-0.1 0-0.1 0-0.2 0 0.1 3.8-2 17.3-3.7 18.8l1 1.7 0.8 0.6 1.9 5c0 0 0 1.2-0.7 0.7-0.6-0.5-1.4-2-1.6-2-0.2-0.1 1.5 3.5 1.5 3.5 0 0-0.1 1.3-1.2 0.5l-2-3.5 1.3 4.4c0 0-0.6 1.1-1.2 0.3l-1.7-3.7c0 0-0.8 4.4-0.3 4.5 0 0-0.9 1.2-1.3 0 0 0-1.2-4.6-0.9-5.2 0 0-0.5-1-1.4 0.1 0 0-1.3 2.1-2.4 1.6 0 0-1.7-0.4 0-1.2l1-3.5c0 0 1.1-0.9 1.8-2.5 0.6-1.3 2.7-10.5 2.6-15.5-0.3-0.7-0.6-1.5-0.7-2.3-0.3-1.5-0.1-2.8 0-4.3v-0.1c-0.4-0.6-1.4-2-2.1-3 0-0.1-0.1-0.3-0.2-0.5-0.7-1-1.5-2.2-2.1-3.3 0 0.1-0.1 0.2-0.1 0.2 0 0-1.8 4.2-2.1 4.9-0.3 0.7-1 2.7-1 3.6 0 0.9-0.4 4.8-1 5.9-0.6 1.2-0.8 1.8-0.9 2.9-0.2 1.2-0.2 1.7-0.6 2.6q-0.3 0.4-0.6 0.9h0.1c-0.1 0.2-0.1 0.3-0.1 0.5 0.7 0.1 1.4 0.2 1.8 0.6 0.9 1 0.3 2.6 0.2 4v-0.1q0 0.1 0 0.3c0 0.2 0 0.3 0 0.5 0 0.1 0-0.2 0-0.5 0-0.1 0-0.1 0-0.2 0.3 2.5 0.9 5.1 1.7 7.5 0.8 2.5 4 20.5-0.5 21.8-0.5 3.2-1.1 6.6-1.2 7.2-0.2 1-0.3 2.9-0.5 3.1-0.2 0.2-0.4 0.4-0.4 0.4 0 0-0.1 0.7-0.6 1.2-0.5 0.5-2 1.7-3.8 2.7-1.7 1-3.5 1.6-4.1 1.9-0.6 0.3-4.1 2.5-5.9 3.2-1.8 0.7-5.9 2-6.4 2.2-0.6 0.3-2.4 1.3-2.4 1.3 0 0 0.4 0.2-0.2 0.6-0.7 0.4-1 1.3-1.3 1.4-0.3 0.2-1.1 0.4-1.2 0.7-0.2 0.3 0.1 0.5 0.1 0.5 0 0 0.6 0.5 0.3 1.1-0.3 0.5-1.1 1.1-1.4 1.1-0.3 0-0.4 0.4-0.4 0.6 0 0.2 0.1 1.9-0.6 2.4-0.7 0.6-1.2 0.7-1.2 0.7 0 0-0.7 1.2-0.9 2.2-0.3 1 0.1 0.9-0.2 1.8-0.3 0.8-0.5 1.5-0.5 1.5 0 0-0.1 1.9-0.5 2.8-0.4 1-1 2.6-2.3 2.9-1.3 0.3-2.6-0.4-2.9-0.9-0.3-0.5-1.7-4.4-1.9-5.1-0.1-0.6-0.2-3.3-0.2-4 0-0.7 0.7-3.4 0.6-4-0.1-0.7-1.4-4.2-1.6-5-0.2-0.8-0.8-4.4 0.1-5.7 0.9-1.2 2.7-1.8 3.7-1.4 1 0.4 2.3 0.6 3.1 1 0.8 0.4 2.5 1.2 2.5 1.2 0 0 2.1-1.1 2.3-1.3 0.2-0.1 0.8-0.5 0.9-0.5 0.2 0 0.2 0.1 0.2 0.1 0 0 3.6-3.2 4.1-3.5 0.5-0.3 2.5-1.8 2.6-2.1 0.1-0.2 1-2.1 1.9-2.7 0.9-0.6 2.8-1.9 4-2.3 1.2-0.3 2.4-0.8 2.5-0.9 0.1-0.2 0.1-1.1 0.1-1.1 0 0-0.8-0.8-1-1.1-0.1-0.3-0.3-1.3-0.2-1.8 0.1-0.5 0.6-2.1 0.6-2.3 0-0.1-0.3-1.9-0.5-2.3 0-1.4 0.1-2.8 0.1-4.2 0.2-1.5 0.1-3.1 0.1-4.7v-0.1c0.1-0.1 0.1-0.1 0.1-0.2q-0.5-2.1 0-4.2c-0.2 1.6-1.8 3.5-2.4 5.2-0.1 0.3-0.2 0.7-0.3 1-0.1 1-0.1 1.9-0.1 2.9-0.2 1-0.5 1.9-1.1 2.8 0 0.1-0.1 0.2-0.1 0.3-0.2 0.2-0.5 0.3-0.8 0.5l-0.8 3.6h0.1c-0.3 0.8-0.5 1.5-0.7 1.9-0.5 0.8-1.4 3.6-1.4 3.6 0 0-1.2-0.1-1.9-0.2-0.7-0.1-1.2-0.2-1.2-0.2 0 0-0.8 1.3-1.5 1.6-0.8 0.3-2.3 0.9-2.7 1.2-0.5 0.4-1.8 0.6-2.6 0.8-0.8 0.1-10.9 5.1-12.3 5.8-1.3 0.7-3.9 2.3-3.9 2.3 0 0 0.1 0.3-0.2 0.5-0.2 0.2-1.4 1.4-1.6 1.6-0.2 0.2-0.4 0.8-0.4 0.8 0 0-0.2 0.8-0.8 1.5-0.6 0.8-1.7 1.9-2.1 2.3-0.3 0.4-1.7 2.2-2.3 2.6-0.6 0.5-1.8 2.8-1.8 2.8 0 0 0.1 0.2 0 0.6-0.1 0.4-0.4 1.3-0.6 1.7-0.1 0.5-0.7 1.6-1.6 2.6-0.8 1-2.1 2.9-3.8 3.2-1.7 0.3-3-0.4-3.5-1.4-0.3-0.7-0.6-1.6-0.7-2.2 1.1-2.9 2.4-5.7 3.4-8.6 0.2-0.4 0.2-0.7 0.2-1 0.4-0.7 0.8-1.4 0.9-1.5 0.2-0.3 3.6-5.2 3.9-5.6 0.3-0.4 1.8-2.4 3.4-3 1.6-0.6 2.8-0.5 2.8-0.5 0 0 1.5-1 1.7-1.1 0.2-0.1 0.4 0.1 0.4 0.1 0 0 3.7-3.4 4.6-4.2 0.9-0.8 4.3-4.6 6.5-5.9 2.2-1.3 4.2-2.1 4.2-2.1 0 0 0-0.6 0.1-0.7 0.1-0.1-0.5-0.5-0.9-0.8-0.4-0.3-1.3-1-1.1-1.6 0.2-0.6 0.8-1.5 1-1.8 0.3-0.3 0.1-1 0.6-1.1 0.5-0.1 1.3-0.2 1.7-0.7 0.4-0.4 2-2.6 2-2.6 0 0 0.3-1.6 0.1-1.9-0.2-0.3-0.6-1.8-0.3-2.9 0.3-1.1 0.9-2.1 0.5-2.9 0-0.1 0-0.1 0-0.1h-0.1c0 0 0-0.1 0-0.2-0.5-1-1.2-3.3-0.9-5.2 0.3-1.9 0.5-2.8 0.5-3h0.1c-1.2-2.8-0.6-7.4 1.5-9.2q-0.3-0.3-0.6-0.9c-1-2 1-6.4 1.6-8.8 0.5-2.3 0.9-5.1 1.2-8.1 0.1-0.4 0.3-0.8 0.4-1.2 2.2-7.8 1.9-18.1-0.8-25.6-0.1-0.2-0.2-0.4-0.3-0.5v-0.1c0 0-7.2-13.9-6.6-19.9-3.5-4.6-3.5-15.1-4-19.1-0.6-5.1-1.6-9.3-1.7-9.7 0-0.4 0.1-0.8-0.1-1.4-0.2-0.6-1.4-3.1-2.3-4.2-0.9-1-1.9-2.9-2.8-4.3-1-1.3-1.5-2.8-1.6-4.5-0.1-1.7-0.1-3-0.1-3.4-0.1-0.4-0.1-1.1 0.3-1.2 0.1-0.1 0.3 0 0.6 0.1 0.2-4.6 2.9-8.8 7.3-10.6 6.1-2.5 13.1 0.4 15.7 6.6 2.6 6.1-0.2 13.2-6.3 15.7-1.1 0.5-2.3 0.8-3.4 0.9-0.1 0.6-0.3 1.2-0.6 1.7-0.4 0.5-1.7 1.3-1.7 2.1 0 0.7 2.2 8.2 3.5 11.6 1.4 3.4 3.1 6.4 3.9 8.5 0.2 0.6 0.4 1.3 0.7 2.1 0.6 1.9 1.1 4 1.4 6.1 0 0 4.2 5.1 6.4 12.3 0 0 0.9 0.2 1.8 0.5 0.2 0.2 0.4 0.4 0.7 0.6 1 0.5 1.9 1 2.8 1.5 0.1-0.8 0.2-1.5 0.2-1.6 0-0.4-0.3-1.3-0.3-1.3 0 0-0.7 0.2-0.9-0.4-0.2-0.6 0.5-1.1 0.6-1.3 0.1-0.2 0.2-0.7 0.4-1 0.3-0.3 0.4-1.1 0.5-2 0.1-0.9 0.5-1.6 0.9-2.3 0.4-0.8 0.5-1 1-2 0.5-1 2-1.9 2.7-2.2 0.7-0.4 2.1-0.9 3.6-0.6 1.5 0.2 2.7 1.1 4 3 1.4 1.8 1.7 3.7 1.8 4.4 0.1 0.7 0 4.2 0 4.2 0 0 0.3 0.2 0.1 1.3-0.2 1.1-1.2 1.4-1.2 1.4 0 0-1.6 1.9-2 2.2-0.3 0.3-0.6 1.2-0.8 1.8 1.1 2.2 5 5.2 7 6.8 1.6 0.8 4.2 2.5 5.5 5 0.2-0.1 0.3-0.2 0.4-0.2l1.2 2.5c0 0 1.7 4.1 1.2 4.8 0 0 4.4 7.1 3.7 13 0 0 0.2 3.8 0.6 5.2z"/>
		<path id="Layer" class="s5" d="m166.5 157c-0.1 0-0.1 0-0.2 0 0.1 3.8-2 17.3-3.7 18.8l1 1.7 0.8 0.6 1.9 5c0 0 0 1.2-0.7 0.7-0.6-0.5-1.4-2-1.6-2-0.2-0.1 1.5 3.5 1.5 3.5 0 0-0.1 1.3-1.2 0.5l-2-3.5 1.3 4.4c0 0-0.6 1.1-1.2 0.3l-1.7-3.7c0 0-0.8 4.4-0.3 4.5 0 0-0.9 1.2-1.3 0 0 0-1.2-4.6-0.9-5.2 0 0-0.5-1-1.4 0.1 0 0-1.3 2.1-2.4 1.6 0 0-1.7-0.4 0-1.2l1-3.5c0 0 1.1-0.9 1.8-2.5 0.6-1.3 2.7-10.5 2.6-15.5-0.3-0.7-0.6-1.5-0.7-2.3-0.3-1.5-0.1-2.8 0-4.3v-0.1c-0.4-0.6-1.4-2-2.1-3 0-0.1-0.1-0.3-0.2-0.5-0.7-1-1.5-2.2-2.1-3.3 0 0.1-0.1 0.2-0.1 0.2 0 0-1.8 4.2-2.1 4.9-0.3 0.7-1 2.7-1 3.6 0 0.9-0.4 4.8-1 5.9-0.6 1.2-0.8 1.8-0.9 2.9-0.2 1.2-0.2 1.7-0.6 2.6q-0.3 0.4-0.6 0.9h0.1c-0.1 0.2-0.1 0.3-0.1 0.5 0.7 0.1 1.4 0.2 1.8 0.6 0.9 1 0.3 2.6 0.2 4v-0.1q0 0.1 0 0.3c0 0.2 0 0.3 0 0.5 0 0.1 0-0.2 0-0.5 0-0.1 0-0.1 0-0.2 0.3 2.5 0.9 5.1 1.7 7.5 0.8 2.5 4 20.5-0.5 21.8-0.5 3.2-1.1 6.6-1.2 7.2-0.2 1-0.3 2.9-0.5 3.1-0.2 0.2-0.4 0.4-0.4 0.4 0 0-0.1 0.7-0.6 1.2-0.5 0.5-2 1.7-3.8 2.7-1.7 1-3.5 1.6-4.1 1.9-0.6 0.3-4.1 2.5-5.9 3.2-1.8 0.7-5.9 2-6.4 2.2-0.6 0.3-2.4 1.3-2.4 1.3 0 0 0.4 0.2-0.2 0.6-0.7 0.4-1 1.3-1.3 1.4-0.3 0.2-1.1 0.4-1.2 0.7-0.1 0.3 0.2 0.5 0.2 0.5 0 0 0.6 0.5 0.3 1.1-0.3 0.5-1.1 1.1-1.4 1.1-0.3 0-0.4 0.4-0.4 0.6 0 0.2 0.1 1.9-0.6 2.4-0.7 0.6-1.2 0.7-1.2 0.7 0 0-0.7 1.2-0.9 2.2-0.3 1 0.1 0.9-0.2 1.8-0.3 0.8-0.5 1.5-0.5 1.5 0 0-0.1 1.9-0.5 2.8-0.4 1-1 2.6-2.3 2.9-1.3 0.3-2.6-0.4-2.9-0.9-0.3-0.5-1.7-4.4-1.9-5.1-0.1-0.6-0.2-3.3-0.2-4 0-0.7 0.7-3.4 0.6-4-0.1-0.7-1.4-4.2-1.6-5-0.2-0.8-0.8-4.4 0.1-5.7 0.9-1.2 2.7-1.8 3.7-1.4 1 0.4 2.3 0.6 3.1 1 0.8 0.4 2.5 1.2 2.5 1.2 0 0 2.1-1.1 2.3-1.3 0.2-0.1 0.8-0.5 0.9-0.5 0.2 0 0.2 0.1 0.2 0.1 0 0 3.6-3.2 4.1-3.5 0.5-0.3 2.5-1.8 2.6-2.1 0.1-0.2 1-2.1 1.9-2.7 0.9-0.6 2.8-1.9 4-2.3 1.2-0.3 2.4-0.8 2.5-0.9 0.1-0.2 0.1-1.1 0.1-1.1 0 0-0.8-0.8-1-1.1-0.1-0.3-0.3-1.3-0.2-1.8 0.1-0.5 0.6-2.1 0.6-2.3 0-0.1-0.3-1.9-0.5-2.3 0-1.4 0.1-2.8 0.1-4.2 0.2-1.5 0.1-3.1 0.1-4.7v-0.1c0.1-0.1 0.1-0.1 0.1-0.2q-0.5-2.1 0-4.2c-0.2 1.6-1.8 3.5-2.4 5.2-0.1 0.3-0.2 0.7-0.3 1-0.1 1-0.1 1.9-0.1 2.9-0.2 1-0.5 1.9-1.1 2.8 0 0.1-0.1 0.2-0.1 0.3-0.2 0.2-0.5 0.3-0.8 0.5l-0.8 3.6h0.1c-0.3 0.8-0.5 1.5-0.7 1.9-0.5 0.8-1.4 3.6-1.4 3.6 0 0-1.2-0.1-1.9-0.2-0.7-0.1-1.2-0.2-1.2-0.2 0 0-0.8 1.3-1.5 1.6-0.8 0.3-2.3 0.9-2.7 1.2-0.5 0.4-1.8 0.6-2.6 0.8-0.8 0.1-10.9 5.1-12.3 5.8-1.3 0.7-3.9 2.3-3.9 2.3 0 0 0.1 0.3-0.2 0.5-0.2 0.2-1.4 1.4-1.6 1.6-0.2 0.2-0.4 0.8-0.4 0.8 0 0-0.2 0.8-0.8 1.5-0.6 0.8-1.7 1.9-2.1 2.3-0.3 0.4-1.7 2.2-2.3 2.6-0.6 0.5-1.8 2.8-1.8 2.8 0 0 0.1 0.2 0 0.6-0.1 0.4-0.4 1.3-0.6 1.7-0.1 0.5-0.7 1.6-1.6 2.6-0.8 1-2.1 2.9-3.8 3.2-1.7 0.3-3-0.4-3.5-1.4-0.3-0.7-0.6-1.6-0.7-2.2 1.1-2.9 2.4-5.7 3.4-8.6 0.2-0.4 0.2-0.7 0.2-1 0.4-0.7 0.8-1.4 0.9-1.5 0.2-0.3 3.6-5.2 3.9-5.6 0.3-0.4 1.8-2.4 3.4-3 1.6-0.6 2.8-0.5 2.8-0.5 0 0 1.5-1 1.7-1.1 0.2-0.1 0.4 0.1 0.4 0.1 0 0 3.7-3.4 4.6-4.2 0.9-0.8 4.3-4.6 6.5-5.9 2.2-1.3 4.2-2.1 4.2-2.1 0 0 0-0.6 0.1-0.7 0.1-0.1-0.5-0.5-0.9-0.8-0.4-0.3-1.3-1-1.1-1.6 0.2-0.6 0.8-1.5 1-1.8 0.3-0.3 0.1-1 0.6-1.1 0.5-0.1 1.3-0.2 1.7-0.7 0.4-0.4 2-2.6 2-2.6 0 0 0.3-1.6 0.1-1.9-0.2-0.3-0.6-1.8-0.3-2.9 0.3-1.1 0.9-2.1 0.5-2.9 0-0.1 0-0.1 0-0.1h-0.1c0 0 0-0.1 0-0.2-0.5-1-1.2-3.3-0.9-5.2 0.3-1.9 0.5-2.8 0.5-3h0.1c-1.2-2.8-0.6-7.4 1.5-9.2q-0.3-0.3-0.6-0.9c-1-2 1-6.4 1.6-8.8 0.5-2.3 0.9-5.1 1.2-8.1 0.1-0.4 0.3-0.8 0.4-1.2 2.2-7.8 1.9-18.1-0.8-25.6-0.1-0.2-0.2-0.4-0.3-0.5v-0.1c0 0-7.2-13.9-6.6-19.9-3.5-4.6-3.5-15.1-4-19.1-0.6-5.1-1.6-9.3-1.7-9.7 0-0.4 0.1-0.8-0.1-1.4-0.2-0.6-1.4-3.1-2.3-4.2-0.9-1-1.9-2.9-2.8-4.3-1-1.3-1.5-2.8-1.6-4.5-0.1-1.7-0.1-3-0.1-3.4-0.1-0.4-0.1-1.1 0.3-1.2 0.1-0.1 0.3 0 0.6 0.1 0.2-4.6 2.9-8.8 7.3-10.6 6.1-2.5 13.1 0.4 15.7 6.6 2.6 6.1-0.2 13.2-6.3 15.7-1.1 0.5-2.3 0.8-3.4 0.9-0.1 0.6-0.3 1.2-0.6 1.7-0.4 0.5-1.7 1.3-1.7 2.1 0 0.7 2.2 8.2 3.5 11.6 1.4 3.4 3.1 6.4 3.9 8.5 0.2 0.6 0.4 1.3 0.7 2.1 0.6 1.9 1.1 4 1.4 6.1 0 0 4.2 5.1 6.4 12.3 0 0 0.9 0.2 1.8 0.5 0.2 0.2 0.4 0.4 0.7 0.6 1 0.5 1.9 1 2.8 1.5 0.1-0.8 0.2-1.5 0.2-1.6 0-0.4-0.3-1.3-0.3-1.3 0 0-0.7 0.2-0.9-0.4-0.2-0.6 0.5-1.1 0.6-1.3 0.1-0.2 0.2-0.7 0.4-1 0.3-0.3 0.4-1.1 0.5-2 0.1-0.9 0.5-1.6 0.9-2.3 0.4-0.8 0.5-1 1-2 0.5-1 2-1.9 2.7-2.2 0.7-0.4 2.1-0.9 3.6-0.6 1.5 0.2 2.7 1.1 4 3 1.4 1.8 1.7 3.7 1.8 4.4 0.1 0.7 0 4.2 0 4.2 0 0 0.3 0.2 0.1 1.3-0.2 1.1-1.2 1.4-1.2 1.4 0 0-1.6 1.9-2 2.2-0.3 0.3-0.6 1.2-0.8 1.8 1.1 2.2 5 5.2 7 6.8 1.6 0.8 4.2 2.5 5.5 5 0.2-0.1 0.3-0.2 0.4-0.2l1.2 2.5c0 0 1.7 4.1 1.2 4.8 0 0 4.4 7.1 3.7 13 0 0 0.2 3.8 0.5 5.2z"/>
	</g>
	<g id="Layer">
		<path id="Layer" class="s5" d="m291.2 137.8v-38.6h5.1v19.1l19.2-19.1h6.9l-16.2 15.6 16.9 23h-6.7l-13.7-19.5-6.3 6.2v13.4h-5.2z"/>
		<path id="Layer" fill-rule="evenodd" class="s5" d="m325 123.8c0-5.2 1.4-9 4.3-11.5 2.4-2.1 5.3-3.1 8.8-3.1 3.8 0 7 1.3 9.4 3.8 2.4 2.5 3.7 6 3.7 10.4 0 3.6-0.5 6.4-1.6 8.5-1.1 2.1-2.7 3.7-4.7 4.8-2.1 1.1-4.3 1.7-6.8 1.7-3.9 0-7.1-1.3-9.5-3.8-2.3-2.4-3.6-6.1-3.6-10.8zm4.9 0c0 3.6 0.8 6.3 2.3 8 1.6 1.8 3.5 2.7 5.9 2.7 2.4 0 4.3-0.9 5.9-2.7 1.6-1.8 2.3-4.5 2.3-8.2 0-3.5-0.8-6.1-2.4-7.9-1.6-1.8-3.5-2.7-5.9-2.7-2.4 0-4.3 0.9-5.9 2.7-1.4 1.9-2.2 4.5-2.2 8.1z"/>
		<path id="Layer" class="s5" d="m354.9 129.5l4.7-0.7c0.3 1.9 1 3.3 2.2 4.3 1.2 1 2.9 1.5 5 1.5 2.2 0 3.8-0.4 4.8-1.3 1.1-0.9 1.6-1.9 1.6-3.1 0-1.1-0.5-1.9-1.4-2.5-0.6-0.4-2.3-1-4.8-1.6-3.5-0.9-5.9-1.6-7.2-2.3-1.3-0.7-2.4-1.5-3.1-2.7-0.7-1.1-1-2.4-1-3.8 0-1.2 0.3-2.4 0.9-3.5 0.6-1.1 1.3-1.9 2.3-2.6 0.7-0.5 1.7-1 3-1.4 1.3-0.4 2.6-0.6 4.1-0.6 2.2 0 4.1 0.3 5.8 0.9 1.7 0.6 2.9 1.5 3.7 2.6 0.8 1.1 1.3 2.5 1.6 4.3l-4.6 0.6c-0.2-1.4-0.8-2.6-1.8-3.4-1-0.8-2.4-1.2-4.3-1.2-2.2 0-3.7 0.4-4.7 1.1-0.9 0.7-1.4 1.6-1.4 2.5 0 0.6 0.2 1.2 0.6 1.7 0.4 0.5 1 0.9 1.8 1.3q0.8 0.3 4.2 1.2c3.4 0.9 5.7 1.6 7 2.2 1.3 0.6 2.4 1.4 3.1 2.5 0.8 1.1 1.1 2.4 1.1 4.1 0 1.6-0.5 3.1-1.4 4.5-0.9 1.4-2.3 2.5-4 3.2-1.7 0.7-3.7 1.1-5.9 1.1-3.6 0-6.4-0.8-8.3-2.3-1.8-1.4-3.1-3.7-3.6-6.6zm11.7-26l2.9-4.5h5.4l-5.9 7.4h-5.1l-5.7-7.4h5.4z"/>
		<path id="Layer" fill-rule="evenodd" class="s5" d="m402 134.4c-1.8 1.5-3.4 2.5-5.1 3.2-1.6 0.6-3.4 0.9-5.2 0.9-3.1 0-5.4-0.8-7.1-2.3-1.7-1.5-2.5-3.4-2.5-5.8 0-1.4 0.3-2.6 0.9-3.8q0.9-1.7 2.4-2.7c1-0.7 2.1-1.2 3.4-1.6 0.9-0.2 2.3-0.5 4.2-0.7 3.8-0.5 6.6-1 8.5-1.6 0-0.6 0-1.1 0-1.2 0-1.9-0.4-3.3-1.3-4.1-1.2-1.1-3-1.6-5.4-1.6-2.2 0-3.9 0.4-4.9 1.2-1.1 0.8-1.8 2.2-2.4 4.1l-4.6-0.6q0.6-3 2.1-4.8c1-1.2 2.4-2.2 4.2-2.8 1.8-0.7 3.9-1 6.3-1 2.4 0 4.3 0.3 5.8 0.8q2.2 0.9 3.3 2.1c0.7 0.9 1.2 1.9 1.5 3.2 0.2 0.8 0.2 2.3 0.2 4.4v6.3q0 6.6 0.3 8.4c0.2 1.2 0.6 2.3 1.2 3.4h-5c-0.3-1-0.6-2.1-0.8-3.4zm-0.4-10.6c-1.7 0.7-4.3 1.3-7.7 1.8-1.9 0.3-3.3 0.6-4.1 0.9-0.8 0.4-1.4 0.9-1.9 1.5-0.4 0.7-0.7 1.4-0.7 2.3 0 1.3 0.5 2.3 1.4 3.2 1 0.8 2.4 1.3 4.2 1.3 1.8 0 3.4-0.4 4.9-1.2 1.4-0.8 2.5-1.9 3.1-3.3 0.5-1.1 0.8-2.7 0.8-4.7z"/>
		<path id="Layer" class="s5" d="m413.7 137.8v-28h4.3v4.2q1.7-3 3-3.9 1.3-0.9 3-0.9c1.6 0 3.2 0.5 4.9 1.5l-1.6 4.4c-1.2-0.7-2.3-1-3.5-1-1 0-2 0.3-2.8 0.9-0.8 0.6-1.4 1.5-1.8 2.6-0.5 1.7-0.8 3.5-0.8 5.5v14.6h-4.7z"/>
		<path id="Layer" class="s5" d="m431.7 137.8v-38.6h4.7v22l11.2-11.4h6.1l-10.7 10.4 11.8 17.6h-5.8l-9.2-14.3-3.3 3.2v11.1z"/>
		<path id="Layer" fill-rule="evenodd" class="s5" d="m476.9 134.4c-1.8 1.5-3.4 2.5-5.1 3.2-1.6 0.6-3.4 0.9-5.2 0.9-3.1 0-5.4-0.8-7.1-2.3-1.7-1.5-2.5-3.4-2.5-5.8 0-1.4 0.3-2.6 0.9-3.8q0.9-1.7 2.4-2.7c1-0.7 2.1-1.2 3.4-1.6 0.9-0.2 2.3-0.5 4.2-0.7 3.8-0.5 6.6-1 8.5-1.6 0-0.6 0-1.1 0-1.2 0-1.9-0.4-3.3-1.3-4.1-1.2-1.1-3-1.6-5.4-1.6-2.2 0-3.9 0.4-4.9 1.2-1.1 0.8-1.8 2.2-2.4 4.1l-4.6-0.6q0.6-3 2.1-4.8c1-1.2 2.4-2.2 4.2-2.8 1.8-0.7 3.9-1 6.3-1 2.4 0 4.3 0.3 5.8 0.8q2.2 0.9 3.3 2.1c0.7 0.9 1.2 1.9 1.5 3.2 0.2 0.8 0.2 2.3 0.2 4.4v6.3q0 6.6 0.3 8.4c0.2 1.2 0.6 2.3 1.2 3.4h-5c-0.3-1-0.6-2.1-0.8-3.4zm-0.4-10.6c-1.7 0.7-4.3 1.3-7.7 1.8-1.9 0.3-3.3 0.6-4.1 0.9-0.8 0.4-1.4 0.9-1.9 1.5-0.4 0.7-0.7 1.4-0.7 2.3 0 1.3 0.5 2.3 1.4 3.2 1 0.8 2.4 1.3 4.2 1.3 1.8 0 3.4-0.4 4.9-1.2 1.4-0.8 2.5-1.9 3.1-3.3 0.5-1.1 0.8-2.7 0.8-4.7z"/>
		<path id="Layer" class="s5" d="m486.8 129.5l4.7-0.7c0.3 1.9 1 3.3 2.2 4.3 1.2 1 2.9 1.5 5 1.5 2.2 0 3.8-0.4 4.8-1.3 1.1-0.9 1.6-1.9 1.6-3.1 0-1.1-0.5-1.9-1.4-2.5-0.7-0.4-2.3-1-4.8-1.6-3.5-0.9-5.9-1.6-7.2-2.3-1.3-0.7-2.4-1.5-3.1-2.7-0.7-1.1-1-2.4-1-3.8 0-1.2 0.3-2.4 0.9-3.5 0.6-1.1 1.3-1.9 2.3-2.6 0.7-0.5 1.7-1 3-1.4 1.3-0.4 2.6-0.6 4.1-0.6 2.2 0 4.1 0.3 5.8 0.9 1.7 0.6 2.9 1.5 3.7 2.6 0.8 1.1 1.3 2.5 1.6 4.3l-4.6 0.6c-0.2-1.4-0.8-2.6-1.8-3.4-1-0.8-2.4-1.2-4.3-1.2-2.2 0-3.7 0.4-4.7 1.1-0.9 0.7-1.4 1.6-1.4 2.5 0 0.6 0.2 1.2 0.6 1.7 0.4 0.5 1 0.9 1.8 1.3q0.8 0.3 4.2 1.2c3.4 0.9 5.7 1.6 7 2.2 1.3 0.6 2.4 1.4 3.1 2.5 0.8 1.1 1.1 2.4 1.1 4.1 0 1.6-0.5 3.1-1.4 4.5-0.9 1.4-2.3 2.5-4 3.2-1.7 0.7-3.7 1.1-5.9 1.1-3.6 0-6.4-0.8-8.3-2.3-1.9-1.4-3.1-3.7-3.6-6.6zm11.7-26l2.9-4.5h5.4l-5.9 7.4h-5.1l-5.7-7.4h5.4z"/>
		<path id="Layer" class="s5" d="m515.7 137.8v-38.6h4.7v22l11.2-11.4h6.1l-10.7 10.4 11.8 17.6h-5.8l-9.2-14.3-3.3 3.2v11.1z"/>
		<path id="Layer" class="s5" d="m542.6 104.7v-5.5h4.7v5.5zm0 33.1v-28h4.7v28z"/>
		<path id="Layer" class="s5" d="m567.7 129.5l4.7-0.7c0.3 1.9 1 3.3 2.2 4.3 1.2 1 2.9 1.5 5 1.5 2.2 0 3.8-0.4 4.8-1.3 1.1-0.9 1.6-1.9 1.6-3.1 0-1.1-0.5-1.9-1.4-2.5-0.7-0.4-2.3-1-4.8-1.6-3.5-0.9-5.9-1.6-7.2-2.3-1.3-0.7-2.4-1.5-3.1-2.7-0.7-1.1-1-2.4-1-3.8 0-1.2 0.3-2.4 0.9-3.5 0.6-1.1 1.3-1.9 2.3-2.6 0.7-0.5 1.7-1 3-1.4 1.3-0.4 2.6-0.6 4.1-0.6 2.2 0 4.1 0.3 5.8 0.9 1.7 0.6 2.9 1.5 3.7 2.6 0.8 1.1 1.3 2.5 1.6 4.3l-4.6 0.6c-0.2-1.4-0.8-2.6-1.8-3.4-1-0.8-2.4-1.2-4.3-1.2-2.2 0-3.7 0.4-4.7 1.1-0.9 0.7-1.4 1.6-1.4 2.5 0 0.6 0.2 1.2 0.6 1.7 0.4 0.5 1 0.9 1.8 1.3q0.8 0.3 4.2 1.2c3.4 0.9 5.7 1.6 7 2.2 1.3 0.6 2.4 1.4 3.1 2.5 0.8 1.1 1.1 2.4 1.1 4.1 0 1.6-0.5 3.1-1.4 4.5-0.9 1.4-2.3 2.5-4 3.2-1.7 0.8-3.7 1.1-5.9 1.1-3.6 0-6.4-0.8-8.3-2.3-1.9-1.4-3.1-3.7-3.6-6.6z"/>
		<path id="Layer" fill-rule="evenodd" class="s5" d="m614.8 134.4c-1.8 1.5-3.4 2.5-5.1 3.2-1.6 0.6-3.4 0.9-5.2 0.9-3.1 0-5.4-0.8-7.1-2.3-1.7-1.5-2.5-3.4-2.5-5.8 0-1.4 0.3-2.6 0.9-3.8q0.9-1.7 2.4-2.7c1-0.7 2.1-1.2 3.4-1.6 0.9-0.2 2.3-0.5 4.2-0.7 3.8-0.5 6.6-1 8.5-1.6 0-0.6 0-1.1 0-1.2 0-1.9-0.4-3.3-1.3-4.1-1.2-1.1-3-1.6-5.4-1.6-2.2 0-3.9 0.4-4.9 1.2-1.1 0.8-1.8 2.2-2.4 4.1l-4.6-0.6q0.6-3 2.1-4.8c1-1.2 2.4-2.2 4.2-2.8 1.8-0.7 3.9-1 6.3-1 2.4 0 4.3 0.3 5.8 0.8q2.2 0.9 3.3 2.1c0.7 0.9 1.2 1.9 1.5 3.2 0.2 0.8 0.2 2.3 0.2 4.4v6.3q0 6.6 0.3 8.4c0.2 1.2 0.6 2.3 1.2 3.4h-5c-0.4-1-0.7-2.1-0.8-3.4zm-0.4-10.6c-1.7 0.7-4.3 1.3-7.7 1.8-1.9 0.3-3.3 0.6-4.1 0.9-0.8 0.4-1.4 0.9-1.9 1.5-0.4 0.7-0.7 1.4-0.7 2.3 0 1.3 0.5 2.3 1.4 3.2 1 0.8 2.4 1.3 4.2 1.3 1.8 0 3.4-0.4 4.9-1.2 1.4-0.8 2.5-1.9 3.1-3.3 0.5-1.1 0.8-2.7 0.8-4.7z"/>
		<path id="Layer" class="s5" d="m634.3 137.8l-10.6-28h5l6 16.7c0.6 1.8 1.2 3.7 1.8 5.6 0.4-1.5 1-3.2 1.8-5.3l6.2-17.1h4.9l-10.6 28h-4.5z"/>
		<path id="Layer" fill-rule="evenodd" class="s5" d="m672.6 128.8l4.9 0.6c-0.8 2.9-2.2 5.1-4.3 6.7-2.1 1.6-4.8 2.4-8 2.4-4.1 0-7.3-1.3-9.7-3.8-2.4-2.5-3.6-6.1-3.6-10.6 0-4.7 1.2-8.4 3.6-11 2.4-2.6 5.6-3.9 9.4-3.9 3.7 0 6.8 1.3 9.2 3.8 2.4 2.5 3.6 6.1 3.6 10.7 0 0.3 0 0.7 0 1.3h-20.9c0.2 3.1 1 5.4 2.6 7.1 1.6 1.6 3.5 2.4 5.8 2.4 1.7 0 3.2-0.5 4.5-1.4 1.2-0.8 2.2-2.3 2.9-4.3zm-15.5-7.7h15.6c-0.2-2.4-0.8-4.1-1.8-5.3-1.5-1.8-3.5-2.7-5.9-2.7-2.2 0-4 0.7-5.5 2.2-1.4 1.4-2.3 3.4-2.4 5.8z"/>
		<path id="Layer" class="s5" d="m681 137.8v-3.8l17.8-20.4c-2 0.1-3.8 0.2-5.3 0.2h-11.5v-3.8h22.9v3.1l-15.1 17.7-2.9 3.2c2.1-0.2 4.1-0.2 6-0.2h12.9v4.1h-24.8z"/>
		<path id="Layer" class="s5" d="m315.9 176.6l7.6 2.4c-1.2 4.2-3.1 7.3-5.8 9.4-2.7 2-6.1 3.1-10.3 3.1-5.1 0-9.3-1.8-12.6-5.3-3.3-3.5-5-8.3-5-14.4 0-6.4 1.7-11.4 5-15 3.3-3.6 7.7-5.3 13.1-5.3 4.7 0 8.6 1.4 11.5 4.2 1.8 1.6 3.1 4 3.9 7.1l-7.7 1.8c-0.5-2-1.4-3.6-2.9-4.7-1.4-1.2-3.2-1.7-5.3-1.7-2.9 0-5.2 1-7 3.1-1.8 2.1-2.7 5.4-2.7 10 0 4.9 0.9 8.4 2.6 10.4 1.8 2.1 4 3.1 6.8 3.1 2.1 0 3.9-0.7 5.3-2 1.8-1.3 2.9-3.4 3.5-6.2z"/>
		<path id="Layer" class="s5" d="m337.2 190.8h-7.4v-28h6.9v4c1.2-1.9 2.2-3.1 3.2-3.7 0.9-0.6 2-0.9 3.2-0.9 1.7 0 3.3 0.5 4.9 1.4l-2.3 6.5c-1.2-0.8-2.4-1.2-3.5-1.2-1 0-1.9 0.3-2.6 0.9-0.7 0.6-1.3 1.6-1.7 3.1-0.4 1.5-0.6 4.6-0.6 9.4v8.5z"/>
		<path id="Layer" class="s5" d="m376.5 190.8h-7.4v-14.3c0-3-0.2-5-0.5-5.9q-0.4-1.4-1.5-2.1c-0.7-0.5-1.6-0.7-2.6-0.7-1.3 0-2.4 0.4-3.4 1.1-1 0.7-1.7 1.6-2.1 2.8-0.4 1.2-0.6 3.3-0.6 6.4v12.7h-7.4v-28h6.9v4.1c2.4-3.2 5.5-4.7 9.2-4.7q2.4 0 4.5 0.9c1.4 0.6 2.4 1.3 3.1 2.3 0.7 0.9 1.2 1.9 1.4 3.1 0.3 1.2 0.4 2.8 0.4 5z"/>
		<path id="Layer" fill-rule="evenodd" class="s5" d="m400.2 181.9l7.4 1.2c-0.9 2.7-2.4 4.8-4.5 6.2-2 1.4-4.6 2.1-7.7 2.1q-7.4 0-10.8-4.8c-1.8-2.5-2.8-5.8-2.8-9.6 0-4.6 1.2-8.3 3.6-10.9 2.4-2.6 5.5-3.9 9.2-3.9 4.2 0 7.4 1.4 9.8 4.1 2.4 2.7 3.6 7 3.4 12.6h-18.5c0.1 2.2 0.6 3.9 1.8 5.1 1.1 1.2 2.6 1.8 4.3 1.8 1.2 0 2.1-0.3 2.9-0.9 0.9-0.6 1.5-1.6 1.9-3zm0.4-7.5c-0.1-2.1-0.6-3.8-1.7-4.9-1.1-1.1-2.3-1.7-3.8-1.7-1.6 0-2.9 0.6-4 1.8-1.1 1.2-1.6 2.8-1.6 4.8z"/>
		<path id="Layer" class="s5" d="m447 176.6v-6.5h16.8v15.4c-1.6 1.6-4 3-7.1 4.2-3.1 1.2-6.2 1.8-9.4 1.8-4 0-7.6-0.8-10.6-2.5-3-1.7-5.3-4.1-6.8-7.3-1.5-3.2-2.3-6.6-2.3-10.3 0-4 0.8-7.6 2.5-10.7 1.7-3.1 4.2-5.5 7.4-7.2 2.5-1.3 5.6-1.9 9.2-1.9 4.8 0 8.5 1 11.2 3 2.7 2 4.4 4.8 5.2 8.3l-7.7 1.4c-0.5-1.9-1.6-3.4-3.1-4.5-1.5-1.1-3.4-1.6-5.6-1.6-3.4 0-6.1 1.1-8.1 3.2q-3 3.3-3 9.6c0 4.6 1 8 3.1 10.3 2 2.3 4.7 3.4 8 3.4 1.6 0 3.3-0.3 4.9-1 1.6-0.6 3.1-1.4 4.2-2.3v-4.9h-8.8z"/>
		<path id="Layer" fill-rule="evenodd" class="s5" d="m469.2 176.4c0-2.5 0.6-4.8 1.8-7.1 1.2-2.3 2.9-4.1 5.1-5.3 2.2-1.2 4.7-1.8 7.4-1.8 4.2 0 7.7 1.4 10.4 4.1 2.7 2.7 4.1 6.2 4.1 10.4 0 4.2-1.4 7.7-4.1 10.5-2.7 2.8-6.2 4.2-10.3 4.2-2.6 0-5-0.6-7.3-1.7-2.3-1.2-4.1-2.9-5.3-5.1-1.2-2.2-1.8-5-1.8-8.2zm7.6 0.4c0 2.8 0.7 4.9 2 6.4 1.3 1.5 2.9 2.2 4.9 2.2 1.9 0 3.6-0.7 4.9-2.2 1.3-1.5 2-3.6 2-6.4 0-2.7-0.7-4.8-2-6.3-1.3-1.5-2.9-2.2-4.9-2.2-1.9 0-3.6 0.7-4.9 2.2-1.3 1.4-2 3.5-2 6.3z"/>
		<path id="Layer" class="s5" d="m511 190.8h-7.4v-28h6.9v4c1.2-1.9 2.2-3.1 3.2-3.7 0.9-0.6 2-0.9 3.2-0.9 1.7 0 3.3 0.5 4.9 1.4l-2.3 6.5c-1.2-0.8-2.4-1.2-3.5-1.2-1 0-1.9 0.3-2.6 0.9-0.7 0.6-1.3 1.6-1.7 3.1-0.4 1.5-0.6 4.6-0.6 9.4v8.5z"/>
		<path id="Layer" fill-rule="evenodd" class="s5" d="m541.1 181.9l7.4 1.2c-0.9 2.7-2.4 4.8-4.5 6.2-2 1.4-4.6 2.1-7.7 2.1q-7.4 0-10.8-4.8c-1.8-2.5-2.8-5.8-2.8-9.6 0-4.6 1.2-8.3 3.6-10.9 2.4-2.6 5.5-3.9 9.2-3.9 4.2 0 7.4 1.4 9.8 4.1 2.4 2.7 3.6 7 3.4 12.6h-18.5c0.1 2.2 0.6 3.9 1.8 5.1 1.1 1.2 2.6 1.8 4.3 1.8 1.2 0 2.1-0.3 2.9-0.9 0.9-0.6 1.5-1.6 1.9-3zm0.4-7.5c-0.1-2.1-0.6-3.8-1.7-4.9-1.1-1.1-2.3-1.7-3.8-1.7-1.6 0-2.9 0.6-4 1.8-1.1 1.2-1.6 2.8-1.6 4.8z"/>
	</g>
</svg>